<?xml version="1.0" encoding="UTF-8"?>
<svg id="Calque_1" data-name="Calque 1" xmlns="http://www.w3.org/2000/svg" viewBox="0 0 1000 1000">
  <defs>
    <linearGradient id="grad" x1="0%" x2="100%" y1="100%" y2="0%">
        <stop offset="0%" stop-color="#67a2d8" />
        <stop offset="100%" stop-color="#1c4c9b" />
    </linearGradient>
    <style>
      .cls-1 {
        fill: url(#grad);
      }

      .cls-1, .cls-2 {
        stroke-width: 0px;
      }

      .cls-2 {
        fill: #2e4394;
      }
    </style>
  </defs>
  <polygon class="cls-1" points="589.59 526.47 842.08 526.47 842.08 844.12 730.73 950 471.49 950 471.49 648.76 589.59 526.47"/>
  <g>
    <path class="cls-2" d="M406.33,738.24v16.29c-4.24,108.49-93.34,195.15-202.81,195.48h-41.54v-122.17h41.54c41.86-.33,76.32-32.42,80.39-73.3h.24v-16.29h122.17Z"/>
    <path class="cls-2" d="M406.33,526.47v122.17h-40.89c-42.19,0-76.97,32.17-81.04,73.3h-.24v16.29h-122.17v-16.29c4.15-107.43,91.55-193.44,199.55-195.39,1.3-.08,2.61-.08,3.91-.08h40.89Z"/>
  </g>
  <g>
    <g>
      <path class="cls-2" d="M410.41,467.58v5.95h-48.87c16.86,0,33.23-2.04,48.87-5.95Z"/>
      <path class="cls-2" d="M410.41,351.36v116.23c-15.64,3.91-32.01,5.95-48.87,5.95-109.79,0-199.22-86.74-203.46-195.48h122.42c4.07,41.13,38.85,73.3,81.04,73.3h48.87Z"/>
      <path class="cls-2" d="M410.41,467.58v5.95h-48.87c16.86,0,33.23-2.04,48.87-5.95Z"/>
    </g>
    <polygon class="cls-2" points="410.41 164.03 410.41 278.05 280.09 278.05 177.63 182.43 157.92 164.03 157.92 50 280.09 50 280.09 164.03 410.41 164.03"/>
  </g>
  <polygon class="cls-2" points="467.42 164.03 467.42 220.3 467.42 248.44 467.42 391.37 467.42 473.53 524.43 473.53 589.59 473.53 589.59 248.44 589.59 164.03 505.62 164.03 467.42 164.03"/>
  <polygon class="cls-2" points="638.46 50 589.59 50 589.59 164.03 638.46 164.03 719.91 164.03 719.91 473.53 842.08 473.53 842.08 164.03 719.91 50 638.46 50"/>
</svg>